<?xml version="1.0" encoding="UTF-8"?>
<svg width="14.0005px" height="8.99925px" viewBox="0 0 14.0005 8.99925" version="1.1" xmlns="http://www.w3.org/2000/svg" xmlns:xlink="http://www.w3.org/1999/xlink">
    <title>Icon / Arrow / Left</title>
    <g id="Icon-/-Arrow-/-Left" stroke="none" stroke-width="1" fill="none" fill-rule="evenodd">
        <path d="M13.4815,3.97425 L1.7265,3.97425 L4.8355,0.85325 C5.0295,0.65725 5.0295,0.34025 4.8355,0.14625 C4.6395,-0.04875 4.3245,-0.04875 4.1285,0.14625 L0.1455,4.14725 C-0.0485,4.34225 -0.0485,4.65825 0.1455,4.85325 L4.1285,8.85325 C4.2265,8.95125 4.3545,8.99925 4.4815,8.99925 C4.6095,8.99925 4.7375,8.95125 4.8355,8.85325 C5.0295,8.65925 5.0295,8.34225 4.8355,8.14625 L1.7255,5.02425 L13.4815,5.02425 C13.7705,5.02425 14.0005,4.79425 14.0005,4.50425 L14.0005,4.49525 C14.0005,4.20425 13.7705,3.97425 13.4815,3.97425" id="Arrow-Icon" fill="#000000"></path>
    </g>
</svg>